<svg width="30" height="30" viewBox="0 0 30 30" fill="none" xmlns="http://www.w3.org/2000/svg">
<path d="M9.72004 6.93599V0H7.56006V6.93599L8.64006 8.01599L9.72004 6.93599Z" fill="#0F0F0F"/>
<path d="M10.368 9.72H19.656L20.736 8.64L19.656 7.56H10.368L9.28796 8.64L10.368 9.72Z" fill="#0F0F0F"/>
<path d="M22.4641 6.93599V0H20.3041V6.93599L21.3841 8.01599L22.4641 6.93599Z" fill="#0F0F0F"/>
<path d="M6.93599 7.56H0V9.72H6.93599L8.016 8.64L6.93599 7.56Z" fill="#0F0F0F"/>
<path d="M7.56006 23.088V30H9.72004V23.088L8.64006 22.008L7.56006 23.088Z" fill="#0F0F0F"/>
<path d="M23.0881 22.464H30V20.304H23.0881L22.0081 21.384L23.0881 22.464Z" fill="#0F0F0F"/>
<path d="M20.3041 10.368V19.656L21.3841 20.736L22.4641 19.656V10.368L21.3841 9.288L20.3041 10.368Z" fill="#0F0F0F"/>
<path d="M30 7.56H23.0881L22.0081 8.64L23.0881 9.72H30V7.56Z" fill="#0F0F0F"/>
<path d="M6.93599 20.304H0V22.464H6.93599L8.016 21.384L6.93599 20.304Z" fill="#0F0F0F"/>
<path d="M9.72004 19.656V10.368L8.64006 9.288L7.56006 10.368V19.656L8.64006 20.736L9.72004 19.656Z" fill="#0F0F0F"/>
<path d="M19.656 20.304H10.368L9.28796 21.384L10.368 22.464H19.656L20.736 21.384L19.656 20.304Z" fill="#0F0F0F"/>
<path d="M20.3041 23.088V30H22.4641V23.088L21.3841 22.008L20.3041 23.088Z" fill="#0F0F0F"/>
</svg>
